<svg xmlns="http://www.w3.org/2000/svg" viewBox="0 0 64 64"><defs><style>.cls-1{fill:#1db560;}</style></defs><g id="Layer_3" data-name="Layer 3"><path class="cls-1" d="M24.26,4.32,59.68,39.74,39.74,59.68,4.32,24.26,24.26,4.32m0-4.32a1.26,1.26,0,0,0-.9.37l-23,23a1.29,1.29,0,0,0,0,1.8L38.84,63.63a1.28,1.28,0,0,0,1.8,0l23-23a1.29,1.29,0,0,0,0-1.8L25.16.37a1.26,1.26,0,0,0-.9-.37Z"/><path class="cls-1" d="M39.74,4.32,59.68,24.26,24.26,59.68,4.32,39.74,39.74,4.32m0-4.32a1.26,1.26,0,0,0-.9.37L.37,38.84a1.29,1.29,0,0,0,0,1.8l23,23a1.28,1.28,0,0,0,1.8,0L63.63,25.16a1.29,1.29,0,0,0,0-1.8l-23-23a1.26,1.26,0,0,0-.9-.37Z"/><rect class="cls-1" x="14.42" y="14.42" width="35.15" height="35.15" transform="translate(-13.25 32) rotate(-45)"/></g></svg>