<svg xmlns="http://www.w3.org/2000/svg" viewBox="0 0 138 34"><defs><style>.cls-1{font-size:20.55px;fill:#141414;font-family:Gotham-Medium, Gotham;font-weight:500;}.cls-2{fill:#1db560;}</style></defs><g id="Layer_3" data-name="Layer 3"><text class="cls-1" transform="translate(52.85 22.69) scale(1.01 1)">Inventy</text><path class="cls-2" d="M24.77,4.89l15.5,15.5-8.73,8.72L16.05,13.61l8.72-8.72m0-1.89a.54.54,0,0,0-.39.16L14.32,13.22a.56.56,0,0,0,0,.79L31.15,30.84a.54.54,0,0,0,.39.16.55.55,0,0,0,.4-.16L42,20.78A.56.56,0,0,0,42,20L25.17,3.16a.57.57,0,0,0-.4-.16Z"/><path class="cls-2" d="M31.54,4.89l8.73,8.72-15.5,15.5-8.72-8.72L31.54,4.89m0-1.89a.54.54,0,0,0-.39.16L14.32,20a.56.56,0,0,0,0,.79L24.38,30.84a.54.54,0,0,0,.39.16.57.57,0,0,0,.4-.16L42,14a.56.56,0,0,0,0-.79l-10-10.06a.55.55,0,0,0-.4-.16Z"/><rect class="cls-2" x="20.47" y="9.31" width="15.38" height="15.38" transform="translate(-3.77 24.89) rotate(-45)"/></g></svg>