<svg id="Layer_1" data-name="Layer 1" xmlns="http://www.w3.org/2000/svg" viewBox="0 0 555 289"><defs><style>.cls-1{fill:#98bdff;}.cls-2{fill:#dae7ff;}.cls-3{fill:#fff;}.cls-4{fill:#b7cae5;}.cls-5{fill:#92afcc;}.cls-6{fill:#ecf3fe;}.cls-7{fill:#d7e6f7;}.cls-8{fill:#1db593;}.cls-9{fill:#89aeff;}.cls-10{fill:#46345e;}.cls-11{fill:#fdbeb7;}.cls-12{fill:#2e243f;}.cls-13{fill:#aecbff;}.cls-14{fill:#dce9ff;}.cls-15,.cls-16,.cls-25{fill:none;stroke-linecap:round;stroke-linejoin:round;}.cls-15,.cls-16{stroke:#46345e;}.cls-15{stroke-width:1.5px;}.cls-16{stroke-width:2.25px;}.cls-17{fill:#ec6c7d;}.cls-18{fill:#9b9b9b;}.cls-19{fill:#afafaf;}.cls-20{fill:#cecece;}.cls-21{fill:#f99a3d;}.cls-22{fill:#dd7619;}.cls-23{fill:#fff5f5;}.cls-24{fill:#ea8428;}.cls-25{stroke:#f99a3d;stroke-width:12px;}</style></defs><rect class="cls-1" width="555" height="289" rx="20"/><rect class="cls-2" width="555" height="289"/><path class="cls-3" d="M409.18,284.55H72.54c-7-21.28-10.46-55,25.65-76.76,56.13-33.84,56.13-71.66,46.28-101.52s3.94-97.53,84.68-89.56,78.77,76.63,114.23,88.57,66,50.76,43.33,87.58C365.3,227.66,375.6,268.23,409.18,284.55Z"/><rect class="cls-4" x="204.42" y="38.24" width="29.57" height="29.88" rx="14.78"/><rect class="cls-5" x="207.28" y="41.39" width="23.84" height="23.59" rx="6" transform="translate(272.39 -166.02) rotate(90)"/><path class="cls-6" d="M219.2,56.18a.48.48,0,0,1-.47-.48V43.59a.47.47,0,1,1,.94,0V55.7A.48.48,0,0,1,219.2,56.18Z"/><path class="cls-6" d="M212.21,56.18a.47.47,0,0,1-.13-.93l9.07-2.75a.47.47,0,0,1,.59.32.48.48,0,0,1-.32.59l-9.07,2.75Z"/><ellipse class="cls-7" cx="249.93" cy="284.55" rx="203.71" ry="4.45"/><rect class="cls-4" x="137.31" y="226.74" width="36.39" height="4.05"/><polygon class="cls-5" points="114.94 230.8 111.25 284.55 113.45 284.55 120.14 230.8 114.94 230.8"/><polygon class="cls-4" points="137.31 230.8 133.63 284.55 135.83 284.55 142.51 230.8 137.31 230.8"/><polygon class="cls-4" points="173.7 230.8 177.38 284.55 175.19 284.55 168.5 230.8 173.7 230.8"/><polygon class="cls-5" points="153.49 230.8 157.17 284.55 154.98 284.55 148.29 230.8 153.49 230.8"/><rect class="cls-8" x="135.57" y="223.27" width="39.89" height="3.47"/><rect class="cls-8" x="113.6" y="223.27" width="21.96" height="3.47" transform="translate(249.17 450.01) rotate(180)"/><rect class="cls-5" x="114.94" y="226.74" width="22.38" height="4.05" transform="translate(252.25 457.54) rotate(180)"/><rect class="cls-5" x="116.76" y="164.6" width="3.85" height="58.67"/><rect class="cls-5" x="131.62" y="164.6" width="3.85" height="58.67"/><rect class="cls-5" x="146.49" y="164.6" width="3.85" height="58.67"/><path class="cls-4" d="M150.65,153.17a111.2,111.2,0,0,1-34.26-.07,2.45,2.45,0,0,0-2.79,2.44v18.65a2.46,2.46,0,0,0,2.06,2.44,104.85,104.85,0,0,0,35.78,0,2.46,2.46,0,0,0,2.05-2.44V155.6A2.45,2.45,0,0,0,150.65,153.17Z"/><path class="cls-9" d="M161.67,138.92l1.19.52a6.45,6.45,0,0,1,3.41,3.67l8.11,22.21,26.21,9.17-9.94,3.3-24.14-2.23-6.41-11.17S157.86,143.4,161.67,138.92Z"/><path class="cls-10" d="M139,198.8l1.45,11.73a12.08,12.08,0,0,0,12,12.14l26.13,4.61,3.76,41.64h11.17L197,220.07a8.76,8.76,0,0,0-6.91-9.22L159,197.79l-3.2-2.43Z"/><polygon class="cls-11" points="183.28 276.2 183.28 269.13 192.49 269.81 192.75 276.2 190.66 279.06 184.39 278.21 183.28 276.2"/><path class="cls-9" d="M183.28,276.2l-1.82,4.08a3.52,3.52,0,0,0,3.42,4.27H205.2a1.49,1.49,0,0,0,.61-2.85l-13.06-5.5C188.24,276.92,185.55,277.94,183.28,276.2Z"/><rect class="cls-12" x="181.02" y="268.21" width="13.68" height="4.43" rx="2.21"/><path class="cls-10" d="M123.52,204.74v5.79c0,6.7,5.35,10.9,12,12.14l26.13,2.79,3.76,43.46h11.18l3.45-48.85a8.76,8.76,0,0,0-6.91-9.22l-26-10-4.41-5.47Z"/><polygon class="cls-11" points="166.34 276.2 166.34 269.13 175.55 269.81 175.81 276.2 173.72 279.06 167.45 278.21 166.34 276.2"/><path class="cls-9" d="M166.34,276.2l-1.81,4.08a3.51,3.51,0,0,0,3.41,4.27h20.32a1.49,1.49,0,0,0,.61-2.85l-13.06-5.5C171.31,276.92,168.61,277.94,166.34,276.2Z"/><rect class="cls-12" x="164.08" y="268.21" width="13.68" height="4.43" rx="2.21"/><polygon class="cls-10" points="160.1 154.69 163.75 170.75 160.1 164.44 160.1 154.69"/><path class="cls-9" d="M161.68,138.92s-.15,14.19-.39,25.07l-.13,5.07c0,.36,0,.71,0,1l0,1.42,0,.53c0,.15,0,.28,0,.42-.06,1.36-.16,3-.29,4.82-.08,1.24-.18,2.57-.28,3.93-.07.78-.12,1.55-.19,2.31-.62,7.91-1.24,14.26-1.24,14.26-14.42-1.47-35.2,8.86-35.2,8.86-1.23-1.66-2.72-3.33-2.72-3.33a142.49,142.49,0,0,1-2.93-31.27l0-2c0-.35,0-.69,0-1,0-1.7.11-3.39.18-5.07,0-.77.07-1.54.11-2.31.26-5.16.62-10.21,1-15.09a9.84,9.84,0,0,1,6-8.31l.1-.05L137,133.56l.48-.2.29-.11,8.63-.1,2.6.87.52.16Z"/><path class="cls-13" d="M161.29,164l-.13,5.07H118.25c0-1.7.11-3.38.18-5.07Z"/><path class="cls-13" d="M161.12,170.11l-.06,1.95H118.19l0-1.95Z"/><path class="cls-14" d="M148.76,140.16a1.5,1.5,0,0,1-1.82,1,14.09,14.09,0,0,1-3.38-1.47,5.61,5.61,0,0,1-3.45,1.08,2.51,2.51,0,0,1-2.41-1.81,17.83,17.83,0,0,1-.69-5.37l.48-.2.29-.12,8.63-.09L149,134l.51.17A13.84,13.84,0,0,1,148.76,140.16Z"/><path class="cls-10" d="M159.58,115.51a16.44,16.44,0,0,0,6.76-7,1,1,0,0,0-.57-1.38,13.37,13.37,0,0,1-5.82-4.28c-3.79-4.39-18-6.88-23,1.89,0,0-6.27,2.15-5.67,8.67s6.48,13.5,6.48,13.5Z"/><path class="cls-11" d="M160.05,115.25a39.49,39.49,0,0,1-.94,6.68,10.49,10.49,0,0,1-10.25,8.23l.14,1.57.07.79c0,.06,0,.13,0,.2A5.62,5.62,0,0,1,149,134a5.84,5.84,0,0,1-3.89,4.59,6.1,6.1,0,0,1-1.31.29,6.26,6.26,0,0,1-.75,0,5.8,5.8,0,0,1-5.55-5.31l0-.23v-.57l0-.91.2-4.95a8.09,8.09,0,0,0,2.5-4.24s-2.89.48-3.58-4.85c0,0,0-5.34,4.29-1.57l.11,1.23a.74.74,0,0,0,1.48,0l.3-2.36s2.25.95,2.94-3.87c0,0,4.95,2.12,8.69,0,0,0,3.19,1.79,5.54.23A21.8,21.8,0,0,1,160.05,115.25Z"/><path class="cls-10" d="M150.48,118a.77.77,0,0,1-.68.82.75.75,0,0,1-.81-.68.76.76,0,0,1,.68-.82A.74.74,0,0,1,150.48,118Z"/><path class="cls-10" d="M157.5,118.15a.76.76,0,0,1-.68.82.75.75,0,0,1-.81-.68.76.76,0,0,1,.68-.82A.75.75,0,0,1,157.5,118.15Z"/><path class="cls-15" d="M138.24,116.14s2.7.14,2.84,3.44c0,0-.58-.62-1-.43s-.27.85-.27.85"/><path class="cls-16" d="M147.35,115.76a4.32,4.32,0,0,1,3.81-.1"/><path class="cls-16" d="M158.71,115.69a4.31,4.31,0,0,0-3.82.08"/><path class="cls-16" d="M149.41,123.55a4.25,4.25,0,0,0,4.48.93"/><path class="cls-17" d="M148.86,130.16a8.92,8.92,0,0,1-4.78-3.22s1.59,4.28,4.92,4.79Z"/><path class="cls-10" d="M160.75,177.29c-.08,1.24-.18,2.57-.28,3.93-.07.78-.12,1.55-.19,2.31H132.42a6.44,6.44,0,0,1-6-4.13l-4.32-11.23Z"/><path class="cls-11" d="M169.31,172.85l9-1.87,3.7,3.17,2.11,4.44-6.75,1.31-2.21-.93-6.35,1.61-4.19-2.37S167.91,173.14,169.31,172.85Z"/><path class="cls-9" d="M166.42,181.17l-5.95.05-26.23.19a8.15,8.15,0,0,1-7.19-4.25l-8.51-15.48c.25-5.16.62-10.21,1-15.09a9.82,9.82,0,0,1,6-8.31l.1-.05,3.69,3.08,10.27,26.75,21.41,3.46,8.24,1.33C166.06,175.21,166.42,181.17,166.42,181.17Z"/><rect class="cls-18" x="155.94" y="179.58" width="26.59" height="1.6" transform="translate(338.47 360.76) rotate(180)"/><path class="cls-19" d="M177.16,181.18h35.21a.7.7,0,0,0,.67-.49l7.63-23.42a.72.72,0,0,0-.67-.94H184.79a.7.7,0,0,0-.67.49l-7.63,23.42A.72.72,0,0,0,177.16,181.18Z"/><path class="cls-18" d="M177.16,181.18h1.21a.72.72,0,0,1-.67-.94l7.63-23.42a.7.7,0,0,1,.67-.49h-1.21a.7.7,0,0,0-.67.49l-7.63,23.42A.71.71,0,0,0,177.16,181.18Z"/><ellipse class="cls-20" cx="198.58" cy="168.76" rx="2.75" ry="2.78"/><rect class="cls-4" x="161.74" y="185.52" width="81.7" height="5.21"/><polygon class="cls-4" points="161.74 190.73 158.05 284.55 160.25 284.55 166.94 190.73 161.74 190.73"/><polygon class="cls-5" points="130.52 190.73 126.83 284.55 129.03 284.55 135.72 190.73 130.52 190.73"/><polygon class="cls-5" points="212.21 190.73 215.9 284.55 213.7 284.55 207.01 190.73 212.21 190.73"/><polygon class="cls-4" points="243.44 190.73 247.12 284.55 244.92 284.55 238.23 190.73 243.44 190.73"/><rect class="cls-8" x="160.01" y="181.05" width="85.15" height="4.47"/><rect class="cls-5" x="130.52" y="185.52" width="31.22" height="5.21" transform="translate(292.26 376.25) rotate(180)"/><rect class="cls-8" x="128.63" y="181.05" width="31.38" height="4.47" transform="translate(288.64 366.56) rotate(180)"/><polygon class="cls-5" points="235.26 181.05 225.88 181.05 223.65 170.65 237.5 170.65 235.26 181.05"/><path class="cls-8" d="M234.29,170.65h-5l-.69-7.26a3.25,3.25,0,0,1,3.21-3.57h0a3.24,3.24,0,0,1,3.2,3.57Z"/><path class="cls-8" d="M223.6,164h0a1.34,1.34,0,0,0,.66,1.91,13.91,13.91,0,0,0,4.81,1.1.77.77,0,0,0,.75-.77h0a.76.76,0,0,0-.61-.76,8.59,8.59,0,0,1-3.65-1.84A1.31,1.31,0,0,0,223.6,164Z"/><rect class="cls-4" x="267.57" y="227.15" width="36.13" height="4.02" transform="translate(571.27 458.33) rotate(180)"/><polygon class="cls-5" points="325.92 231.18 329.57 284.55 327.39 284.55 320.76 231.18 325.92 231.18"/><polygon class="cls-4" points="303.7 231.18 307.36 284.55 305.17 284.55 298.54 231.18 303.7 231.18"/><polygon class="cls-4" points="267.57 231.18 263.91 284.55 266.09 284.55 272.73 231.18 267.57 231.18"/><polygon class="cls-5" points="287.64 231.18 283.98 284.55 286.16 284.55 292.8 231.18 287.64 231.18"/><rect class="cls-8" x="265.83" y="223.7" width="39.61" height="3.45" transform="translate(571.27 450.86) rotate(180)"/><rect class="cls-8" x="305.44" y="223.7" width="21.81" height="3.45"/><rect class="cls-5" x="303.7" y="227.15" width="22.22" height="4.02"/><rect class="cls-5" x="320.29" y="165.45" width="3.82" height="58.26" transform="translate(644.4 389.15) rotate(180)"/><rect class="cls-5" x="305.53" y="165.45" width="3.82" height="58.26" transform="translate(614.88 389.15) rotate(180)"/><rect class="cls-5" x="290.77" y="165.45" width="3.82" height="58.26" transform="translate(585.36 389.15) rotate(180)"/><path class="cls-4" d="M290.45,154.1a110.65,110.65,0,0,0,34-.07,2.43,2.43,0,0,1,2.76,2.42V175a2.44,2.44,0,0,1-2,2.41,103.9,103.9,0,0,1-35.53,0,2.44,2.44,0,0,1-2-2.41V156.51A2.43,2.43,0,0,1,290.45,154.1Z"/><polygon class="cls-11" points="284.28 277.96 278.51 242.91 292.08 245.63 293 275.61 293.33 280.29 284.28 280.29 284.28 277.96"/><path class="cls-10" d="M293,275.61l2.34,3.9a4,4,0,0,1-3.78,5h-21a1.63,1.63,0,0,1-1.5-1h0a1.65,1.65,0,0,1,.94-2.18l14.24-4.89S292,281.49,293,275.61Z"/><polygon class="cls-11" points="260.77 277.96 257.56 243.26 271.13 245.98 269.48 275.61 269.82 280.29 260.77 280.29 260.77 277.96"/><path class="cls-10" d="M269.48,275.61l2.35,3.9a4,4,0,0,1-3.79,5h-21a1.61,1.61,0,0,1-1.49-1h0a1.64,1.64,0,0,1,.94-2.18l14.24-4.89S268.49,281.49,269.48,275.61Z"/><path class="cls-10" d="M279.54,113.6s-2.85,2-1.23,7.88a39.2,39.2,0,0,1,.76,17.12c-.9,6.1,1.81,13.79,15.3,15.22s25.18-5.61,21.43-13.75a56.63,56.63,0,0,0-7.2-12.15s1.29-1.29.74-2.57a5.8,5.8,0,0,0-2.31-2.21s-1.76-15.72-18.1-15.11C288.93,108,280.88,109,279.54,113.6Z"/><path class="cls-21" d="M273.75,176.57c1.31.7,4.05,1,6.77.91a23.16,23.16,0,0,0,3.08-.29l.71-10.66,0-.61.32-.51-2.38-17.27-2,.63a5.8,5.8,0,0,0-3.46,2.94Z"/><path class="cls-22" d="M280.31,168.55a38.27,38.27,0,0,1,.21,8.93,23.16,23.16,0,0,0,3.08-.29l.71-10.66-.92-4.72S279.71,164.79,280.31,168.55Z"/><path class="cls-21" d="M307,145.31l9.37,2.88,1.79,21.05-5.4,27H285.91l-4.82-26.9a8.36,8.36,0,0,1,.72-5.16l1.58-3.24-1.1-12.83,8-2.67Z"/><path class="cls-11" d="M281.72,123.14A41.81,41.81,0,0,0,284,134a8.4,8.4,0,0,0,8.76,5.44l-.44,5-2.05,1a64.29,64.29,0,0,0,2.42,6.46c1.15,2.61,2.62,5.35,4.19,6.8a31,31,0,0,0,6.18-6.53,36.8,36.8,0,0,0,3.94-6.9L304.5,144l-2.79-12.1s3-1.73,2.79-4.46-2.57-3.28-4-1.87a1.86,1.86,0,0,1-1.69,1.09,1.79,1.79,0,0,1-.51-.07c-3.81-1.09-13.55-4.31-16-9.21C282.36,117.38,282.94,121,281.72,123.14Z"/><path class="cls-10" d="M291.51,127.59a.8.8,0,0,0,.72.87.79.79,0,0,0,.86-.72.79.79,0,1,0-1.58-.15Z"/><path class="cls-10" d="M285.39,127.8a.79.79,0,1,0,.87-.73A.8.8,0,0,0,285.39,127.8Z"/><path class="cls-10" d="M301.45,130a.24.24,0,0,0,.22-.15.94.94,0,0,0-.4-1.2.86.86,0,0,0-.84.13c.34-2.72,2.3-2.88,2.39-2.88a.24.24,0,0,0,.22-.26.24.24,0,0,0-.25-.22s-2.73.2-2.88,3.88a.24.24,0,0,0,.41.18c.21-.22.58-.48.74-.4s.18.56.17.6a.24.24,0,0,0,.14.31Z"/><path class="cls-10" d="M294.84,125.49a.23.23,0,0,0,.21-.13A.24.24,0,0,0,295,125a4.79,4.79,0,0,0-4.29-.1.24.24,0,1,0,.23.41,4.38,4.38,0,0,1,3.83.11Z"/><path class="cls-10" d="M287.68,125.49a.23.23,0,0,0,.2-.11.23.23,0,0,0-.08-.33,4.74,4.74,0,0,0-4.28-.09.23.23,0,0,0-.11.32.22.22,0,0,0,.31.11,4.4,4.4,0,0,1,3.84.07A.27.27,0,0,0,287.68,125.49Z"/><path class="cls-10" d="M290.15,135.19a4,4,0,0,0,2.94-1.42.24.24,0,0,0,0-.34.23.23,0,0,0-.33,0,3.58,3.58,0,0,1-3,1.21.24.24,0,0,0-.07.47A4.56,4.56,0,0,0,290.15,135.19Z"/><path class="cls-23" d="M298.77,134.75a3.93,3.93,0,1,1,3.93,4A3.95,3.95,0,0,1,298.77,134.75Zm.48,0a3.45,3.45,0,1,0,3.45-3.48A3.47,3.47,0,0,0,299.25,134.75Z"/><path class="cls-17" d="M292.79,139.45a19.57,19.57,0,0,0,5.06-3.21s-1.7,4.3-5.27,5.58Z"/><path class="cls-23" d="M292.72,151.94c1.15,2.61,2.62,5.35,4.19,6.8a31,31,0,0,0,6.18-6.53A31.46,31.46,0,0,1,292.72,151.94Z"/><polygon class="cls-22" points="315.75 168.72 315.26 183.93 318.19 169.1 315.75 168.72"/><path class="cls-21" d="M316.4,148.19l.74.24a7.22,7.22,0,0,1,4.43,4.13,108.79,108.79,0,0,1,6.2,24l-9.58,3.69-4.26-13.35Z"/><path class="cls-11" d="M327.89,176.06h0c-.06,3.45-3.3,6.2-7.24,6.15l-24.93-.06-.66-6.66,19.82-4.12,6.51-.55C324.91,170.52,327.94,173,327.89,176.06Z"/><path class="cls-11" d="M295.24,175.52l-6.88-2.37a2.08,2.08,0,0,0-1.66.14l-5.24,2.94a.89.89,0,0,0-.47,1l1.05,3.62a2.17,2.17,0,0,0,2.55,1.36l3.27-.66h0a2.94,2.94,0,0,0,2.95,1.47l4.91-.91Z"/><path class="cls-10" d="M312.79,196.28l2.33,4.26a21.23,21.23,0,0,1,2.61,10.2v1.66a11.27,11.27,0,0,1-11.21,11.32h-14.4s3.37,25.69,4.13,37.28c0,0-4.78-4.1-18.19-.7s-22.78-1.13-22.78-1.13V212.1a9.75,9.75,0,0,1,7.15-9.43l23.48-6.39Z"/><path class="cls-11" d="M253,163.78l2.34-5.63,24,13.69a6,6,0,0,1,.19,9.51h0c-2.16,1.7-4.76,1.1-6.76-1.2Z"/><path class="cls-11" d="M243.55,155.62l.82,0,3.15.23h1l1.64-.72a1.82,1.82,0,0,1,1.91.27l3.21,2.74V164l-2.21,1.17-4.54-.49-3.34-.47a1.57,1.57,0,0,1-1.31-1.27l-1.15-6.32A.8.8,0,0,1,243.55,155.62Z"/><rect class="cls-4" x="307.75" y="180.23" width="41.9" height="1.74"/><rect class="cls-5" x="307.75" y="180.23" width="11.58" height="1.74"/><rect class="cls-4" x="310" y="186.4" width="80.97" height="5.17"/><polygon class="cls-4" points="310 191.56 306.35 284.55 308.53 284.55 315.16 191.56 310 191.56"/><polygon class="cls-5" points="279.06 191.56 275.4 284.55 277.59 284.55 284.22 191.56 279.06 191.56"/><polygon class="cls-5" points="360.03 191.56 363.69 284.55 361.51 284.55 354.87 191.56 360.03 191.56"/><polygon class="cls-4" points="390.97 191.56 394.63 284.55 392.45 284.55 385.81 191.56 390.97 191.56"/><rect class="cls-8" x="308.29" y="181.97" width="84.4" height="4.43"/><rect class="cls-5" x="279.06" y="186.4" width="30.94" height="5.17" transform="translate(589.06 377.96) rotate(180)"/><rect class="cls-8" x="277.19" y="181.97" width="31.1" height="4.43" transform="translate(585.48 368.36) rotate(180)"/><path class="cls-5" d="M301.09,182h-5c-2-1.75-2.55-5.68-2.45-10.71h9.89C303.64,176.29,303.05,180.22,301.09,182Z"/><path class="cls-5" d="M295.67,181.05a4.58,4.58,0,0,1-3.46-1.44c-2.18-2.36-1.93-6.73-1.92-6.91a.49.49,0,0,1,.49-.46h3.51a.49.49,0,0,1,0,1h-3c0,1.13.15,4.08,1.67,5.72a3.56,3.56,0,0,0,2.75,1.13.49.49,0,0,1,0,1Z"/><path class="cls-24" d="M385.81,142.8V181a1,1,0,0,1-1,1H351.46a1,1,0,0,1-1-1V159l17-17.14h17.39A1,1,0,0,1,385.81,142.8Z"/><path class="cls-21" d="M385.81,142.8V181a1,1,0,0,1-1,1H374.1V141.82h10.74A1,1,0,0,1,385.81,142.8Z"/><rect class="cls-4" x="306.35" y="141.83" width="55.13" height="31.79" rx="6"/><path class="cls-5" d="M333.91,164.49h0a6.46,6.46,0,0,1,6.46,6.46v11a0,0,0,0,1,0,0H327.45a0,0,0,0,1,0,0V171A6.46,6.46,0,0,1,333.91,164.49Z"/><rect class="cls-7" x="178.3" y="99.39" width="38.31" height="48.43" rx="9"/><path class="cls-4" d="M197.72,130a11.14,11.14,0,1,1,11-11.14A11.1,11.1,0,0,1,197.72,130Zm0-21.52A10.38,10.38,0,1,0,208,118.83,10.33,10.33,0,0,0,197.72,108.45Z"/><path class="cls-4" d="M197.72,125.6a6.77,6.77,0,1,1,6.69-6.77A6.74,6.74,0,0,1,197.72,125.6Zm0-12.77a6,6,0,1,0,5.94,6A6,6,0,0,0,197.72,112.83Z"/><path class="cls-8" d="M197.72,130.23a11.35,11.35,0,0,1-11.28-11.4.63.63,0,1,1,1.26,0,10,10,0,1,0,10-10.12.64.64,0,0,1,0-1.28,11.4,11.4,0,0,1,0,22.8Z"/><path class="cls-8" d="M188.25,135.28A1.28,1.28,0,1,1,187,134,1.29,1.29,0,0,1,188.25,135.28Z"/><path class="cls-21" d="M197.72,125.73a6.91,6.91,0,0,1-5.6-10.85.5.5,0,0,1,.7-.12.51.51,0,0,1,.13.71,5.8,5.8,0,1,0,4.77-2.52.51.51,0,1,1,0-1,6.9,6.9,0,0,1,0,13.79Z"/><path class="cls-25" d="M197.72,112.44"/><rect class="cls-4" x="189.75" y="133.99" width="20" height="2.59" rx="1.29"/><path class="cls-21" d="M188.25,139.65a1.28,1.28,0,1,1-1.28-1.3A1.28,1.28,0,0,1,188.25,139.65Z"/><rect class="cls-4" x="189.75" y="138.35" width="20" height="2.59" rx="1.29"/><rect class="cls-7" x="223.2" y="99.39" width="38.31" height="48.43" rx="9"/><rect class="cls-4" x="228.72" y="134.63" width="27.25" height="2.59" rx="1.29"/><rect class="cls-4" x="228.72" y="139.49" width="13.62" height="2.59" rx="1.29"/><path class="cls-8" d="M240.11,130.55c-2.53,0-2.79-5.1-3.08-11-.12-2.37-.23-4.61-.5-6.29-.37-2.31-.88-2.34-.9-2.34-1,0-2.4,2.41-3.49,9.18a2.4,2.4,0,0,1-2.37,2,.59.59,0,0,1,0-1.18,1.22,1.22,0,0,0,1.21-1c1.64-10.17,3.91-10.17,4.65-10.17,2.09,0,2.3,4.3,2.57,9.75.19,3.93.49,9.88,1.91,9.88s1.88-4,2.26-7.17c.47-4,.92-7.77,3.16-7.77,2.48,0,2.76,3.33,3,6.27.1,1.22.28,3.46.72,3.57.68-.48,1.42-4.83,1.9-7.72,1.09-6.42,1.85-10.35,3.77-10.35a.58.58,0,0,1,.59.59.59.59,0,0,1-.59.59s-.57,0-1.3,2.7c-.5,1.85-.91,4.3-1.31,6.67-1,5.72-1.54,8.7-3,8.7s-1.72-2.15-1.93-4.65c-.19-2.31-.42-5.19-1.83-5.19-1.2,0-1.64,3.73-2,6.73C243,126.56,242.56,130.55,240.11,130.55Z"/><ellipse class="cls-21" cx="235.63" cy="110.33" rx="1.07" ry="1.08"/><ellipse class="cls-21" cx="240.23" cy="129.96" rx="1.07" ry="1.08"/><ellipse class="cls-21" cx="245.54" cy="115.05" rx="1.07" ry="1.08"/><ellipse class="cls-21" cx="249.36" cy="124.69" rx="1.07" ry="1.08"/><ellipse class="cls-21" cx="255.19" cy="106.79" rx="1.07" ry="1.08"/><path class="cls-4" d="M347.64,110.37v22a.82.82,0,0,1-.82.82H331a.82.82,0,0,1-.82-.82v-22a.83.83,0,0,1,.82-.83h15.84A.83.83,0,0,1,347.64,110.37Z"/><path class="cls-8" d="M347.64,110.37v3.52H330.16v-3.52a.83.83,0,0,1,.82-.83h15.84A.83.83,0,0,1,347.64,110.37Z"/><path class="cls-4" d="M334.58,107.21h0a1,1,0,0,0-1,1v2.61a1,1,0,0,0,1,1h0a1,1,0,0,0,1-1v-2.61A1,1,0,0,0,334.58,107.21Z"/><path class="cls-4" d="M343.22,107.21h0a1,1,0,0,0-1,1v2.61a1,1,0,0,0,1,1h0a1,1,0,0,0,1-1v-2.61A1,1,0,0,0,343.22,107.21Z"/><path class="cls-8" d="M335.6,127.33a4.68,4.68,0,0,1-.64,0l-.63-.1-.54-.14a3.07,3.07,0,0,1-.37-.15l.28-1.21a4.43,4.43,0,0,0,.71.26,3.77,3.77,0,0,0,1.15.15,2,2,0,0,0,1.32-.36,1.2,1.2,0,0,0,.41-.95,1.28,1.28,0,0,0-.16-.65,1.21,1.21,0,0,0-.43-.41,2,2,0,0,0-.63-.23,4.38,4.38,0,0,0-.75-.06h-.47v-1.15h.58a3.29,3.29,0,0,0,.54-.05,1.61,1.61,0,0,0,.49-.19,1,1,0,0,0,.36-.36,1.09,1.09,0,0,0,.14-.57,1.07,1.07,0,0,0-.1-.49.87.87,0,0,0-.28-.32,1,1,0,0,0-.39-.19,1.7,1.7,0,0,0-.46-.06,2.45,2.45,0,0,0-.93.16,3.46,3.46,0,0,0-.72.36l-.51-1.06.4-.22a4.08,4.08,0,0,1,.51-.23,5.43,5.43,0,0,1,.61-.17,3.85,3.85,0,0,1,.69-.06,3.65,3.65,0,0,1,1.16.16,2.17,2.17,0,0,1,.8.47,1.76,1.76,0,0,1,.48.7,2.56,2.56,0,0,1,.16.89,1.8,1.8,0,0,1-.31,1,2.11,2.11,0,0,1-.8.68,2.15,2.15,0,0,1,1,.74,2,2,0,0,1,.41,1.32,2.73,2.73,0,0,1-.18,1,2,2,0,0,1-.57.8,2.81,2.81,0,0,1-1,.53A4.47,4.47,0,0,1,335.6,127.33Z"/><path class="cls-8" d="M345.55,123.09a5.66,5.66,0,0,1-.74,3.15,2.48,2.48,0,0,1-4.11,0,5.58,5.58,0,0,1-.74-3.15,7.71,7.71,0,0,1,.19-1.82,4,4,0,0,1,.55-1.33,2.57,2.57,0,0,1,.89-.82,2.5,2.5,0,0,1,3.22.82A5.64,5.64,0,0,1,345.55,123.09Zm-1.45,0a8.86,8.86,0,0,0-.07-1.19,3.89,3.89,0,0,0-.23-1,1.57,1.57,0,0,0-.41-.64.89.89,0,0,0-.64-.24.91.91,0,0,0-.64.24,1.49,1.49,0,0,0-.42.64,3.91,3.91,0,0,0-.22,1,11.73,11.73,0,0,0,0,2.37,4,4,0,0,0,.22,1,1.56,1.56,0,0,0,.42.64,1,1,0,0,0,.64.23.93.93,0,0,0,.64-.23,1.65,1.65,0,0,0,.41-.64,4,4,0,0,0,.23-1A8.81,8.81,0,0,0,344.1,123.09Z"/></svg>